<?xml version="1.0" encoding="UTF-8"?>
<svg width="40px" height="35px" viewBox="0 0 40 35" version="1.1" xmlns="http://www.w3.org/2000/svg" xmlns:xlink="http://www.w3.org/1999/xlink">
    <!-- Generator: sketchtool 57.1 (101010) - https://sketch.com -->
    <title>A140C29D-F304-407E-9CF2-03024217DB70</title>
    <desc>Created with sketchtool.</desc>
    <g id="Auto-Fill" stroke="none" stroke-width="1" fill="none" fill-rule="evenodd">
        <g id="Asset-Class" transform="translate(-810.000000, -257.000000)" fill="#FFFFFF" fill-rule="nonzero">
            <path d="M848.181818,257 C849.186,257 850,257.806306 850,258.800957 L850,285.815313 C850,286.809981 849.186,287.61627 848.181818,287.61627 L844.545455,287.61627 L844.545455,290.736788 C844.545455,291.88904 843.113455,292.437432 842.330909,291.584859 L839.090909,288.054443 L835.850909,291.584859 C835.068364,292.437432 833.636364,291.88904 833.636364,290.736788 L833.636364,287.61627 L811.818182,287.61627 C810.814036,287.61627 810,286.809981 810,285.815313 L810,258.800957 C810,257.806306 810.814036,257 811.818182,257 L848.181818,257 Z M842.727273,283.050664 C841.657636,283.663529 840.415636,284.014356 839.090909,284.014356 C837.766182,284.014356 836.524182,283.663529 835.454545,283.050664 L835.454545,289.339245 L838.149091,286.403145 C838.654182,285.853133 839.527636,285.853133 840.032727,286.403145 L842.727273,289.339245 L842.727273,283.050664 Z M848.181818,258.800957 L811.818182,258.800957 L811.818182,285.815313 L833.636364,285.815313 L833.636364,281.5755 C832.504727,280.305645 831.818182,278.637598 831.818182,276.810528 C831.818182,272.832033 835.074364,269.606699 839.090909,269.606699 C843.107455,269.606699 846.363636,272.832033 846.363636,276.810528 C846.363636,278.637598 845.677091,280.305645 844.545455,281.5755 L844.545455,285.815313 L848.181818,285.815313 L848.181818,258.800957 Z M839.090909,271.407656 C836.078364,271.407656 833.636364,273.826522 833.636364,276.810528 C833.636364,279.794533 836.078364,282.213399 839.090909,282.213399 C842.103455,282.213399 844.545455,279.794533 844.545455,276.810528 C844.545455,273.826522 842.103455,271.407656 839.090909,271.407656 Z M827.272727,275.009571 C827.774727,275.009571 828.181818,275.412805 828.181818,275.910049 C828.181818,276.407293 827.774727,276.810528 827.272727,276.810528 L818.181818,276.810528 C817.679727,276.810528 817.272727,276.407293 817.272727,275.910049 C817.272727,275.412805 817.679727,275.009571 818.181818,275.009571 L827.272727,275.009571 Z M818.181818,269.606699 L829.090909,269.606699 C829.592909,269.606699 830,270.009934 830,270.507178 C830,270.966173 829.65313,271.345064 829.204928,271.400639 L829.090909,271.407656 L818.181818,271.407656 C817.679727,271.407656 817.272727,271.004422 817.272727,270.507178 C817.272727,270.048183 817.61952,269.669292 818.067781,269.613717 L818.181818,269.606699 L829.090909,269.606699 Z M841.818182,264.203828 C842.320182,264.203828 842.727273,264.60699 842.727273,265.104307 C842.727273,265.601623 842.320182,266.004785 841.818182,266.004785 L818.181818,266.004785 C817.679727,266.004785 817.272727,265.601623 817.272727,265.104307 C817.272727,264.60699 817.679727,264.203828 818.181818,264.203828 L841.818182,264.203828 Z" id="bond-cert-icon"></path>
        </g>
    </g>
</svg>

