<?xml version="1.0" encoding="UTF-8"?>
<svg width="39px" height="36px" viewBox="0 0 39 36" version="1.1" xmlns="http://www.w3.org/2000/svg" xmlns:xlink="http://www.w3.org/1999/xlink">
    <!-- Generator: sketchtool 57.1 (101010) - https://sketch.com -->
    <title>CD1EFDB8-DB5B-452D-9F91-0C517919D5FB</title>
    <desc>Created with sketchtool.</desc>
    <g id="Landing-Page" stroke="none" stroke-width="1" fill="none" fill-rule="evenodd">
        <g id="Home-2" transform="translate(-1225.000000, -866.000000)" fill="#FFFFFF">
            <g id="Asset-classes" transform="translate(108.000000, 854.000000)">
                <g id="real-estate" transform="translate(952.000000, 0.000000)">
                    <path d="M189.961914,12 C190.355835,12 190.675171,12.3150635 190.675171,12.7036743 L190.675171,20.444458 L201.373169,20.444458 C201.76709,20.444458 202.086426,20.7595215 202.086426,21.1481323 L202.086426,45.777771 L202.799561,45.777771 C203.193481,45.777771 203.512817,46.0928345 203.512817,46.4815064 C203.512817,46.8701172 203.193481,47.1851807 202.799561,47.1851807 L165.713257,47.1851807 C165.319336,47.1851807 165,46.8701172 165,46.4815064 C165,46.0928345 165.319336,45.777771 165.713257,45.777771 L166.426392,45.777771 L166.426392,26.777771 C166.426392,26.4962769 166.569092,26.2148438 166.85437,26.2148438 L177.837646,20.7259522 L177.837646,12.7036743 C177.837646,12.3150635 178.15686,12 178.550781,12 L189.961914,12 Z M189.248779,13.4074097 L179.264038,13.4074097 L179.264038,45.777771 L189.248779,45.777771 L189.248779,13.4074097 Z M200.659912,21.8518066 L190.675171,21.8518066 L190.675171,45.77771 L200.659912,45.77771 L200.659912,21.8518066 Z M177.837524,22.2740479 L167.852783,27.1999512 L167.852783,45.777771 L177.837524,45.777771 L177.837524,22.2740479 Z M185.682861,15.3777466 C186.07666,15.3777466 186.395996,15.6928101 186.395996,16.0814209 L186.395996,44.2296143 C186.395996,44.6182251 186.07666,44.9332886 185.682861,44.9332886 L182.830078,44.9332886 C182.436157,44.9332886 182.116821,44.6182251 182.116821,44.2296143 L182.116821,16.0814209 C182.116821,15.6928101 182.436157,15.3777466 182.830078,15.3777466 L185.682861,15.3777466 Z M184.969604,16.7851563 L183.543213,16.7851563 L183.543213,43.5258789 L184.969604,43.5258789 L184.969604,16.7851563 Z M174.984786,40.2888656 C175.378675,40.2888656 175.697985,40.6039244 175.697985,40.9925693 C175.697985,41.348827 175.429676,41.6432521 175.081563,41.689849 L174.984786,41.696273 L170.70559,41.696273 C170.311701,41.696273 169.992391,41.3812141 169.992391,40.9925693 C169.992391,40.6363115 170.2607,40.3418864 170.608813,40.2952895 L170.70559,40.2888656 L174.984786,40.2888656 Z M197.664524,39.8666433 C198.058413,39.8666433 198.377723,40.1817022 198.377723,40.570347 C198.377723,40.9266048 198.109414,41.2210299 197.761301,41.2676268 L197.664524,41.2740507 L193.385328,41.2740507 C192.991439,41.2740507 192.672129,40.9589919 192.672129,40.570347 C192.672129,40.2140893 192.940438,39.9196642 193.288551,39.8730673 L193.385328,39.8666433 L197.664524,39.8666433 Z M174.984786,35.3629396 C175.378675,35.3629396 175.697985,35.6779985 175.697985,36.0666433 C175.697985,36.4229011 175.429676,36.7173262 175.081563,36.7639231 L174.984786,36.770347 L170.70559,36.770347 C170.311701,36.770347 169.992391,36.4552882 169.992391,36.0666433 C169.992391,35.7103856 170.2607,35.4159605 170.608813,35.3693636 L170.70559,35.3629396 L174.984786,35.3629396 Z M197.664524,35.2221989 C198.058413,35.2221989 198.377723,35.5372578 198.377723,35.9259026 C198.377723,36.2821604 198.109414,36.5765855 197.761301,36.6231823 L197.664524,36.6296063 L193.385328,36.6296063 C193.017882,36.5728592 192.729642,36.2884562 192.672129,35.9259026 C192.672129,35.5696448 192.940438,35.2752197 193.288551,35.2286229 L193.385328,35.2221989 L197.664524,35.2221989 Z M197.664524,30.4370137 C198.058413,30.4370137 198.377723,30.7520726 198.377723,31.1407174 C198.377723,31.4969752 198.109414,31.7914003 197.761301,31.8379971 L197.664524,31.8444211 L193.385328,31.8444211 C192.991439,31.8444211 192.672129,31.5293622 192.672129,31.1407174 C192.672129,30.7844596 192.940438,30.4900345 193.288551,30.4434377 L193.385328,30.4370137 L197.664524,30.4370137 Z M174.984786,30.4370137 C175.378675,30.4370137 175.697985,30.7520726 175.697985,31.1407174 C175.697985,31.4969752 175.429676,31.7914003 175.081563,31.8379971 L174.984786,31.8444211 L170.70559,31.8444211 C170.311701,31.8444211 169.992391,31.5293622 169.992391,31.1407174 C169.992391,30.7844596 170.2607,30.4900345 170.608813,30.4434377 L170.70559,30.4370137 L174.984786,30.4370137 Z M197.664524,25.7925693 C198.058413,25.7925693 198.377723,26.1076281 198.377723,26.496273 C198.377723,26.8525307 198.109414,27.1469558 197.761301,27.1935527 L197.664524,27.1999767 L193.385328,27.1999767 C192.991439,27.1999767 192.672129,26.8849178 192.672129,26.496273 C192.672129,26.1400152 192.940438,25.8455901 193.288551,25.7989932 L193.385328,25.7925693 L197.664524,25.7925693 Z" id="building-icon"></path>
                </g>
            </g>
        </g>
    </g>
</svg>